<svg width="16" height="16" viewBox="0 0 16 16" fill="none" xmlns="http://www.w3.org/2000/svg">
<path fill-rule="evenodd" clip-rule="evenodd" d="M3 4H13V12H3V4ZM5 6H11V10H5V6Z" fill="#C5C5C5"/>
<path d="M15 10H14V14H15V10Z" fill="#C5C5C5"/>
<path d="M15 13H11V14H15V13Z" fill="#C5C5C5"/>
<path d="M2 10H1V14H2V10Z" fill="#C5C5C5"/>
<path d="M5 13H1V14H5V13Z" fill="#C5C5C5"/>
<path d="M15 2H14V6H15V2Z" fill="#C5C5C5"/>
<path d="M15 2H11V3H15V2Z" fill="#C5C5C5"/>
<path d="M2 2H1V6H2V2Z" fill="#C5C5C5"/>
<path d="M5 2H1V3H5V2Z" fill="#C5C5C5"/>
</svg>
